<svg width="23" height="21" viewBox="0 0 23 21" fill="none" xmlns="http://www.w3.org/2000/svg">
<path fill-rule="evenodd" clip-rule="evenodd" d="M18.1137 10.9698C17.8149 12.2261 17.985 13.6158 18.9348 14.5271L21.5751 17.0602C22.3945 17.8464 22.3945 19.1209 21.5751 19.9071C20.7557 20.6932 19.4272 20.6932 18.6078 19.9071L16.4183 17.8065C15.3553 16.7866 13.6901 16.7102 12.2649 17.1692C9.15763 18.1697 5.58994 17.4827 3.11506 15.1082C-0.367343 11.7672 -0.367343 6.35017 3.11506 3.00908C6.59747 -0.332014 12.2436 -0.332014 15.726 3.00908C17.9772 5.16899 18.7731 8.19645 18.1137 10.9698ZM13.1823 12.6172C15.2308 10.6519 15.2308 7.46543 13.1823 5.50008C11.1339 3.53473 7.81262 3.53473 5.76415 5.50008C3.71567 7.46543 3.71567 10.6519 5.76415 12.6172C7.81262 14.5826 11.1339 14.5826 13.1823 12.6172Z" fill="white"/>
<path d="M18.9348 14.5271L19.2832 14.1639L18.9348 14.5271ZM18.1137 10.9698L17.6241 10.8533L18.1137 10.9698ZM21.5751 17.0602L21.9235 16.6971L21.5751 17.0602ZM21.5751 19.9071L21.9235 20.2702V20.2702L21.5751 19.9071ZM18.6078 19.9071L18.2594 20.2702L18.6078 19.9071ZM16.4183 17.8065L16.0699 18.1696V18.1696L16.4183 17.8065ZM12.2649 17.1692L12.4191 17.6482H12.4191L12.2649 17.1692ZM3.11506 15.1082L2.76665 15.4714H2.76665L3.11506 15.1082ZM3.11506 3.00908L3.46348 3.37223L3.11506 3.00908ZM15.726 3.00908L16.0744 2.64593L15.726 3.00908ZM13.1823 5.50008L12.8339 5.86323L13.1823 5.50008ZM13.1823 12.6172L12.8339 12.2541V12.2541L13.1823 12.6172ZM5.76415 5.50008L6.11256 5.86323L5.76415 5.50008ZM5.76415 12.6172L6.11256 12.2541L5.76415 12.6172ZM19.2832 14.1639C18.5077 13.4199 18.3287 12.2407 18.6033 11.0862L17.6241 10.8533C17.3011 12.2116 17.4623 13.8118 18.5863 14.8902L19.2832 14.1639ZM21.9235 16.6971L19.2832 14.1639L18.5863 14.8902L21.2267 17.4234L21.9235 16.6971ZM21.9235 20.2702C22.9493 19.286 22.9493 17.6813 21.9235 16.6971L21.2267 17.4234C21.8396 18.0114 21.8396 18.9559 21.2266 19.5439L21.9235 20.2702ZM18.2594 20.2702C19.2735 21.2432 20.9094 21.2432 21.9235 20.2702L21.2266 19.5439C20.602 20.1433 19.5809 20.1433 18.9562 19.5439L18.2594 20.2702ZM16.0699 18.1696L18.2594 20.2702L18.9562 19.5439L16.7667 17.4433L16.0699 18.1696ZM12.4191 17.6482C13.7527 17.2188 15.1941 17.3293 16.0699 18.1696L16.7667 17.4433C15.5165 16.2438 13.6275 16.2017 12.1106 16.6901L12.4191 17.6482ZM2.76665 15.4714C5.38273 17.9813 9.14614 18.7021 12.4191 17.6482L12.1106 16.6901C9.16913 17.6373 5.79716 16.9841 3.46348 14.7451L2.76665 15.4714ZM2.76665 2.64593C-0.922217 6.1851 -0.922217 11.9322 2.76665 15.4714L3.46348 14.7451C0.187531 11.6021 0.187531 6.51524 3.46348 3.37223L2.76665 2.64593ZM16.0744 2.64593C12.3973 -0.881976 6.44377 -0.881976 2.76665 2.64593L3.46348 3.37223C6.75117 0.217948 12.0899 0.217948 15.3776 3.37223L16.0744 2.64593ZM18.6033 11.0862C19.3032 8.14255 18.4568 4.93166 16.0744 2.64593L15.3776 3.37223C17.4977 5.40631 18.243 8.25035 17.6241 10.8533L18.6033 11.0862ZM12.8339 5.86323C14.6759 7.6305 14.6759 10.4868 12.8339 12.2541L13.5307 12.9804C15.7857 10.817 15.7857 7.30036 13.5307 5.13693L12.8339 5.86323ZM6.11256 5.86323C7.96632 4.0847 10.9802 4.0847 12.8339 5.86323L13.5307 5.13693C11.2876 2.98477 7.65892 2.98477 5.41573 5.13693L6.11256 5.86323ZM6.11256 12.2541C4.27055 10.4868 4.27055 7.6305 6.11256 5.86323L5.41573 5.13693C3.1608 7.30036 3.1608 10.817 5.41573 12.9804L6.11256 12.2541ZM12.8339 12.2541C10.9802 14.0326 7.96632 14.0326 6.11256 12.2541L5.41573 12.9804C7.65892 15.1325 11.2876 15.1325 13.5307 12.9804L12.8339 12.2541Z" fill="white"/>
</svg>
