<svg width="170" height="39" viewBox="0 0 170 39" fill="none" xmlns="http://www.w3.org/2000/svg">
<path d="M170 0H18.0116C12.4167 0 9.61928 0 7.41259 0.914038C4.47035 2.13275 2.13274 4.47036 0.914029 7.4126C0 9.61928 0 12.4167 0 18.0117V20.1969C0 25.7918 0 28.5893 0.914029 30.796C2.13274 33.7382 4.47035 36.0758 7.41259 37.2945C9.61928 38.2086 12.4167 38.2086 18.0117 38.2086H151.988C157.583 38.2086 160.381 38.2086 162.587 37.2945C165.53 36.0758 167.867 33.7382 169.086 30.796C170 28.5893 170 25.7918 170 20.1969V0Z" fill="#3D4A7A"/>
</svg>
