<svg width="31" height="28" viewBox="0 0 31 28" fill="none" xmlns="http://www.w3.org/2000/svg">
<path fill-rule="evenodd" clip-rule="evenodd" d="M11.625 2.33333C16.6186 2.33333 20.6667 5.98967 20.6667 10.5C20.6667 15.0103 16.6186 18.6667 11.625 18.6667C10.5397 18.6667 9.5018 18.4945 8.5411 18.1797C8.11764 18.0409 7.64676 18.0099 7.18745 18.1118C5.95379 18.3855 4.69439 18.5591 3.42429 18.63C3.9019 17.4934 4.06691 16.2647 3.89901 15.0509C3.86166 14.7809 3.76389 14.5442 3.64775 14.3482C2.96885 13.2028 2.58333 11.8938 2.58333 10.5C2.58333 5.98967 6.63143 2.33333 11.625 2.33333ZM23.25 10.5C23.25 4.70101 18.0453 0 11.625 0C5.20469 0 0 4.70101 0 10.5C0 12.2695 0.485639 13.9399 1.34413 15.4051C1.47812 16.4853 1.22982 17.5795 0.62947 18.5285L0.576491 18.6122C-0.0966173 19.6762 0.753924 21 2.11063 21C4.00661 21 5.89171 20.796 7.72665 20.3947C8.94692 20.787 10.2598 21 11.625 21C18.0453 21 23.25 16.299 23.25 10.5ZM26.2922 9.63447C25.7469 10.0499 25.6777 10.786 26.1377 11.2785C27.5604 12.8018 28.4167 14.7674 28.4167 16.9167C28.4167 18.413 28.0019 19.8184 27.2716 21.0476C27.1545 21.2446 27.0573 21.4811 27.0197 21.7496C26.8351 23.0687 27.024 24.4049 27.5631 25.6343C26.1599 25.563 24.7685 25.3742 23.4065 25.0709C22.9468 24.9686 22.4747 24.9994 22.0498 25.1395C21.0157 25.4802 19.898 25.6667 18.7292 25.6667C16.3496 25.6667 14.1734 24.8933 12.4869 23.6082C11.9416 23.1928 11.1267 23.2552 10.6667 23.7477C10.2068 24.2403 10.2759 24.9763 10.8212 25.3918C12.9563 27.0185 15.7175 28 18.7292 28C20.1788 28 21.5724 27.7725 22.8667 27.3538C24.8175 27.7822 26.822 28 28.8382 28C30.2177 28 31.0825 26.6539 30.3981 25.5721L30.3981 25.5721L30.3418 25.4831C29.6929 24.4574 29.426 23.274 29.5741 22.1065C30.4847 20.557 31 18.7895 31 16.9167C31 14.1965 29.9134 11.7025 28.1123 9.77398C27.6523 9.28148 26.8374 9.21902 26.2922 9.63447ZM6.45833 11.6667C7.1717 11.6667 7.75 11.1443 7.75 10.5C7.75 9.85567 7.1717 9.33333 6.45833 9.33333C5.74497 9.33333 5.16667 9.85567 5.16667 10.5C5.16667 11.1443 5.74497 11.6667 6.45833 11.6667ZM12.9167 10.5C12.9167 11.1443 12.3384 11.6667 11.625 11.6667C10.9116 11.6667 10.3333 11.1443 10.3333 10.5C10.3333 9.85567 10.9116 9.33333 11.625 9.33333C12.3384 9.33333 12.9167 9.85567 12.9167 10.5ZM16.7917 11.6667C17.505 11.6667 18.0833 11.1443 18.0833 10.5C18.0833 9.85567 17.505 9.33333 16.7917 9.33333C16.0783 9.33333 15.5 9.85567 15.5 10.5C15.5 11.1443 16.0783 11.6667 16.7917 11.6667Z" fill="black" fill-opacity="0.5"/>
</svg>
