<svg xmlns="http://www.w3.org/2000/svg" width="74" height="74" fill="none" viewBox="0 0 74 74">
  <circle cx="36.275" cy="36.275" r="7.956" stroke="#000" stroke-width="1.5"/>
  <path stroke="#000" stroke-width="1.5" d="M33.634 18.306c.81-3.588 5.922-3.588 6.732 0 .754 3.335 4.581 4.92 7.473 3.095 3.11-1.964 6.724 1.65 4.76 4.76-1.826 2.892-.24 6.72 3.095 7.473 3.588.81 3.588 5.922 0 6.732-3.335.754-4.92 4.581-3.095 7.473 1.964 3.11-1.65 6.724-4.76 4.76-2.892-1.826-6.72-.24-7.473 3.095-.81 3.588-5.922 3.588-6.732 0-.754-3.335-4.581-4.92-7.473-3.095-3.11 1.964-6.724-1.65-4.76-4.76 1.826-2.892.24-6.72-3.095-7.473-3.588-.81-3.588-5.922 0-6.732 3.335-.754 4.92-4.581 3.095-7.473-1.964-3.11 1.65-6.724 4.76-4.76 2.892 1.826 6.72.24 7.473-3.095Z"/>
</svg>
