<svg width="217" height="39" viewBox="0 0 217 39" fill="none" xmlns="http://www.w3.org/2000/svg">
<path d="M0 0H198.99C204.584 0 207.382 0 209.588 0.913948C212.53 2.13255 214.867 4.46992 216.086 7.41187C217 9.61834 217 12.4155 217 18.0099V20.1949C217 25.7893 217 28.5865 216.086 30.793C214.867 33.7349 212.53 36.0723 209.588 37.2909C207.382 38.2048 204.584 38.2048 198.99 38.2048H18.0099C12.4155 38.2048 9.61834 38.2048 7.41187 37.2909C4.46992 36.0723 2.13255 33.7349 0.913948 30.793C0 28.5865 0 25.7893 0 20.1949V0Z" fill="#F2F7FB"/>
</svg>
