<svg width="33" height="24" viewBox="0 0 33 24" fill="none" xmlns="http://www.w3.org/2000/svg">
<path d="M9.60054 18L9.60054 10C9.60054 7.79086 12.0567 6 15.0866 6L23.3156 6M9.60054 18C9.60054 20.2091 12.0567 22 15.0866 22H18.3002C19.7552 22 21.1506 21.5786 22.1794 20.8284L27.1948 17.1716C28.2236 16.4214 28.8016 15.404 28.8016 14.3431V10C28.8016 7.79086 26.3455 6 23.3156 6M9.60054 18C6.57069 18 4.11452 16.2091 4.11452 14L4.11452 6C4.11452 3.79086 6.5707 2 9.60054 2L17.8296 2C20.8594 2 23.3156 3.79086 23.3156 6M20.5726 22V20C20.5726 17.7909 23.0288 16 26.0586 16H28.8016" stroke="#797C7B" stroke-opacity="0.5" stroke-width="1.5" stroke-linejoin="round"/>
</svg>
