<svg xmlns="http://www.w3.org/2000/svg" width="100" height="100" fill="none" viewBox="0 0 100 100">
  <circle cx="50.569" cy="50.569" r="9.25" stroke="#000" stroke-width="1.5"/>
  <path stroke="#000" stroke-width="1.5" d="M35.494 28.697c3.753 2.37 8.722.312 9.7-4.018 1.157-5.121 8.455-5.121 9.612 0 .978 4.33 5.947 6.389 9.7 4.018 4.44-2.803 9.6 2.357 6.797 6.797-2.37 3.753-.312 8.722 4.018 9.7 5.121 1.157 5.121 8.455 0 9.612-4.33.978-6.389 5.947-4.018 9.7 2.803 4.44-2.357 9.6-6.797 6.797-3.753-2.37-8.722-.312-9.7 4.018-1.157 5.121-8.455 5.121-9.612 0-.978-4.33-5.947-6.389-9.7-4.018-4.44 2.803-9.6-2.357-6.797-6.797 2.37-3.753.312-8.722-4.018-9.7-5.121-1.157-5.121-8.455 0-9.612 4.33-.978 6.389-5.947 4.018-9.7-2.803-4.44 2.357-9.6 6.797-6.797Z"/>
</svg>
