<svg width="26" height="28" viewBox="0 0 26 28" fill="none" xmlns="http://www.w3.org/2000/svg">
<path fill-rule="evenodd" clip-rule="evenodd" d="M5.2 0H20.8C23.6719 0 26 2.50721 26 5.6V15.4C26 16.1732 25.418 16.8 24.7 16.8C23.982 16.8 23.4 16.1732 23.4 15.4V8.4H10.4V25.2H24.7C25.418 25.2 26 25.8268 26 26.6C26 27.3732 25.418 28 24.7 28H5.2C2.32812 28 0 25.4928 0 22.4V5.6C0 2.50721 2.32812 0 5.2 0ZM5.2 2.8H7.8V25.2H5.2C3.76406 25.2 2.6 23.9464 2.6 22.4V5.6C2.6 4.0536 3.76406 2.8 5.2 2.8ZM20.8 2.8C22.2359 2.8 23.4 4.0536 23.4 5.6H10.4V2.8H20.8ZM13 21C13 20.2268 13.582 19.6 14.3 19.6L24.7 19.6C25.418 19.6 26 20.2268 26 21C26 21.7732 25.418 22.4 24.7 22.4L14.3 22.4C13.582 22.4 13 21.7732 13 21ZM14.3 14C13.582 14 13 14.6268 13 15.4C13 16.1732 13.582 16.8 14.3 16.8H19.5C20.218 16.8 20.8 16.1732 20.8 15.4C20.8 14.6268 20.218 14 19.5 14H14.3Z" fill="#5C1D78"/>
</svg>
