<svg width="28" height="24" viewBox="0 0 28 24" fill="none" xmlns="http://www.w3.org/2000/svg">
<g clip-path="url(#clip0_32_622)">
<path d="M8.09333 6V6.75C8.32492 6.75 8.54352 6.64301 8.6856 6.46013L8.09333 6ZM9.7321 3.8906L9.13983 3.43047V3.43047L9.7321 3.8906ZM18.1079 3.8906L18.7002 3.43047V3.43047L18.1079 3.8906ZM19.7467 6L19.1544 6.46013C19.2965 6.64301 19.5151 6.75 19.7467 6.75V6ZM16.666 13.5C16.666 14.6391 15.5483 15.75 13.92 15.75V17.25C16.1532 17.25 18.166 15.6746 18.166 13.5H16.666ZM13.92 15.75C12.2916 15.75 11.174 14.6391 11.174 13.5H9.674C9.674 15.6746 11.6868 17.25 13.92 17.25V15.75ZM11.174 13.5C11.174 12.3609 12.2916 11.25 13.92 11.25V9.75C11.6868 9.75 9.674 11.3254 9.674 13.5H11.174ZM13.92 11.25C15.5483 11.25 16.666 12.3609 16.666 13.5H18.166C18.166 11.3254 16.1532 9.75 13.92 9.75V11.25ZM8.6856 6.46013L10.3244 4.35073L9.13983 3.43047L7.50106 5.53987L8.6856 6.46013ZM11.6713 3.75H16.1687V2.25H11.6713V3.75ZM17.5156 4.35073L19.1544 6.46013L20.3389 5.53987L18.7002 3.43047L17.5156 4.35073ZM16.1687 3.75C16.7444 3.75 17.2418 3.99832 17.5156 4.35073L18.7002 3.43047C18.1094 2.67008 17.1514 2.25 16.1687 2.25V3.75ZM10.3244 4.35073C10.5981 3.99832 11.0955 3.75 11.6713 3.75V2.25C10.6886 2.25 9.73057 2.67008 9.13983 3.43047L10.3244 4.35073ZM24.8233 10V17H26.3233V10H24.8233ZM20.912 20.25H6.928V21.75H20.912V20.25ZM3.01666 17V10H1.51666V17H3.01666ZM6.928 20.25C4.65605 20.25 3.01666 18.6914 3.01666 17H1.51666C1.51666 19.7269 4.05117 21.75 6.928 21.75V20.25ZM24.8233 17C24.8233 18.6914 23.1839 20.25 20.912 20.25V21.75C23.7888 21.75 26.3233 19.7269 26.3233 17H24.8233ZM20.912 6.75C23.1839 6.75 24.8233 8.30864 24.8233 10H26.3233C26.3233 7.27308 23.7888 5.25 20.912 5.25V6.75ZM6.928 5.25C4.05117 5.25 1.51666 7.27308 1.51666 10H3.01666C3.01666 8.30864 4.65605 6.75 6.928 6.75V5.25ZM6.928 6.75H8.09333V5.25H6.928V6.75ZM20.912 5.25H19.7467V6.75H20.912V5.25Z" fill="#000E08" fill-opacity="0.5"/>
<ellipse cx="13.92" cy="6" rx="1.16533" ry="1" fill="#000E08" fill-opacity="0.5"/>
</g>
<defs>
<clipPath id="clip0_32_622">
<rect width="27.968" height="24" fill="white"/>
</clipPath>
</defs>
</svg>
